<svg width="500" height="139" viewBox="0 0 500 139" fill="none" xmlns="http://www.w3.org/2000/svg">
<path d="M350.893 31.3857C343.446 31.3857 336.167 33.594 329.975 37.7313C323.784 41.8686 318.959 47.749 316.109 54.6289C313.26 61.5088 312.515 69.079 313.969 76.3823C315.422 83.6856 319.009 90.3938 324.275 95.6585C329.541 100.923 336.251 104.508 343.554 105.959C350.858 107.411 358.428 106.664 365.307 103.813C372.186 100.962 378.065 96.1345 382.201 89.9419C386.336 83.7494 388.543 76.4695 388.54 69.023C388.54 64.0795 387.567 59.1844 385.674 54.6174C383.782 50.0503 381.009 45.9007 377.513 42.4057C374.017 38.9106 369.867 36.1385 365.299 34.2476C360.731 32.3568 355.836 31.3843 350.893 31.3857ZM350.893 90.4262C346.671 90.4135 342.547 89.15 339.043 86.7952C335.539 84.4404 332.811 81.0999 331.204 77.1957C329.597 73.2915 329.183 68.9986 330.014 64.8593C330.846 60.72 332.885 56.9199 335.875 53.939C338.865 50.9581 342.671 48.9301 346.813 48.111C350.955 47.292 355.246 47.7188 359.146 49.3373C363.045 50.9559 366.377 53.6938 368.722 57.2051C371.066 60.7164 372.317 64.8437 372.317 69.0657C372.317 71.8762 371.763 74.6591 370.685 77.2548C369.608 79.8506 368.028 82.2082 366.038 84.1925C364.048 86.1769 361.686 87.749 359.087 88.8186C356.488 89.8883 353.703 90.4346 350.893 90.4262Z" fill="#1E2330"/>
<path d="M201.989 31.3857C194.542 31.3836 187.261 33.5901 181.069 37.7261C174.876 41.8621 170.049 47.7418 167.198 54.6215C164.347 61.5012 163.601 69.0718 165.053 76.3758C166.505 83.6797 170.091 90.3889 175.357 95.6547C180.623 100.921 187.332 104.506 194.636 105.959C201.94 107.411 209.51 106.665 216.39 103.814C223.27 100.963 229.15 96.1358 233.286 89.943C237.422 83.7502 239.628 76.4699 239.626 69.023C239.623 59.0418 235.657 49.4703 228.599 42.4126C221.541 35.3548 211.97 31.3886 201.989 31.3857ZM201.989 90.4262C197.766 90.4156 193.642 89.1539 190.136 86.8004C186.63 84.4468 183.901 81.1071 182.292 77.2031C180.684 73.299 180.268 69.0058 181.099 64.8658C181.929 60.7258 183.967 56.9247 186.957 53.9427C189.946 50.9608 193.752 48.9317 197.894 48.1118C202.037 47.2919 206.329 47.718 210.229 49.3363C214.129 50.9546 217.462 53.6924 219.806 57.204C222.151 60.7155 223.403 64.8432 223.403 69.0657C223.403 71.8753 222.848 74.6573 221.772 77.2523C220.695 79.8474 219.117 82.2045 217.127 84.1888C215.138 86.173 212.777 87.7452 210.179 88.8156C207.582 89.8859 204.798 90.4332 201.989 90.4262Z" fill="#1E2330"/>
<path d="M309.123 104.802H245.479V92.4449L283.928 48.6559H252.859C250.902 48.6559 249.025 47.8783 247.641 46.4943C246.257 45.1103 245.479 43.2331 245.479 41.2758V33.0947H309.123V45.7508L268.901 89.2836H301.753C302.722 89.2836 303.681 89.4745 304.576 89.8455C305.471 90.2166 306.284 90.7603 306.968 91.4458C307.652 92.1312 308.195 92.9449 308.565 93.8402C308.934 94.7355 309.124 95.695 309.123 96.6636V104.802Z" fill="#1E2330"/>
<path d="M476.151 104.941H459.063L444.976 62.7004L430.75 104.941H413.661L389.823 33.0947H401.368C403.481 33.0944 405.539 33.7642 407.247 35.0078C408.955 36.2514 410.225 38.0047 410.874 40.0155L422.867 77.2042L437.499 33.0947H452.302L466.956 77.343L478.95 40.0369C479.596 38.0241 480.865 36.2685 482.573 35.0228C484.281 33.7772 486.341 33.1058 488.455 33.1054H500L476.151 104.941Z" fill="#1E2330"/>
<path fill-rule="evenodd" clip-rule="evenodd" d="M128.687 65.8039C129.931 66.7692 131.507 67.2012 133.069 67.0047L133.08 66.9727C134.642 66.7754 136.062 65.966 137.027 64.7222C137.992 63.4785 138.424 61.9023 138.228 60.3402C136.602 47.5071 131.402 35.3894 123.221 25.369C115.04 15.3487 104.208 7.82914 91.9597 3.6681C79.7116 -0.492941 66.5405 -1.12799 53.9488 1.83539C41.3571 4.79877 29.8517 11.2413 20.7449 20.4281C19.6323 21.5416 19.0072 23.0513 19.0072 24.6254C19.0072 26.1996 19.6323 27.7093 20.7449 28.8228C21.8584 29.9354 23.3681 30.5604 24.9422 30.5604C26.5164 30.5604 28.0261 29.9354 29.1396 28.8228C36.6757 21.2037 46.203 15.858 56.6329 13.3963C67.0628 10.9346 77.9749 11.4562 88.1225 14.9015C98.2701 18.3467 107.244 24.5768 114.019 32.8799C120.794 41.183 125.097 51.2243 126.437 61.8568C126.634 63.4188 127.443 64.8386 128.687 65.8039ZM57.5397 87.2704C61.1469 89.6784 65.3872 90.9626 69.7243 90.9605C75.536 90.952 81.1071 88.6389 85.2156 84.5284C89.3241 80.4179 91.6346 74.8456 91.6402 69.0339C91.6402 64.6968 90.354 60.4571 87.9442 56.8511C85.5344 53.245 82.1093 50.4347 78.1021 48.7754C74.0949 47.1162 69.6857 46.6826 65.432 47.5295C61.1784 48.3764 57.2715 50.4657 54.2054 53.5333C51.1394 56.6009 49.0519 60.5088 48.2071 64.7628C47.3623 69.0169 47.798 73.4259 49.4592 77.4323C51.1204 81.4386 53.9325 84.8624 57.5397 87.2704ZM64.1408 60.6776C65.7935 59.5732 67.7366 58.9838 69.7243 58.9838C72.3889 58.9867 74.9436 60.0464 76.8277 61.9306C78.7119 63.8147 79.7716 66.3694 79.7744 69.0339C79.7744 71.0217 79.185 72.9648 78.0807 74.6175C76.9764 76.2702 75.4068 77.5584 73.5703 78.319C71.7339 79.0797 69.7132 79.2787 67.7636 78.891C65.8141 78.5032 64.0233 77.546 62.6178 76.1404C61.2123 74.7349 60.2551 72.9442 59.8673 70.9946C59.4795 69.0451 59.6786 67.0244 60.4392 65.1879C61.1999 63.3515 62.488 61.7819 64.1408 60.6776ZM83.9186 30.3501C83.9253 30.7778 83.8787 31.2048 83.7798 31.621C83.4968 32.9519 82.7631 34.1443 81.7025 34.9967C80.642 35.849 79.3196 36.309 77.959 36.299C77.5351 36.2998 77.1124 36.2532 76.6988 36.1601C74.4203 35.6731 72.0972 35.4261 69.7673 35.4232C61.413 35.4744 53.3451 38.4739 46.9863 43.8926C44.0599 46.4452 41.1869 49.425 38.4421 52.3194C37.0002 53.8253 35.5691 55.3098 34.17 56.7517L13.194 77.685L5.85662 85.0223C5.47371 85.4107 4.99252 85.6878 4.46442 85.8241C3.93631 85.9604 3.38111 85.9507 2.85807 85.7961C2.33504 85.6415 1.8638 85.3478 1.49467 84.9463C1.12553 84.5447 0.872344 84.0505 0.762139 83.5164C0.495132 82.1279 0.260167 80.7288 0.0786023 79.3084C-0.109852 77.8438 0.0416586 76.3555 0.52138 74.9589C1.0011 73.5623 1.79613 72.2951 2.84479 71.2554L13.1192 60.9704L25.7219 48.357C27.1103 46.9792 28.4774 45.5481 29.8445 44.0849C32.8136 40.9769 35.8575 37.7942 39.2004 34.8785C43.9781 30.7903 49.5326 27.7097 55.5305 25.8216C63.1832 23.3328 71.3549 22.8945 79.23 24.5507C80.5583 24.8326 81.7493 25.5628 82.603 26.6187C83.4567 27.6747 83.9212 28.9922 83.9186 30.3501ZM35.5877 128.965C45.991 134.893 57.7509 138.03 69.7249 138.071C80.0563 138.08 90.257 135.762 99.5701 131.29C108.883 126.817 117.069 120.305 123.521 112.236C124.011 111.629 124.376 110.932 124.596 110.185C124.815 109.437 124.886 108.654 124.802 107.879C124.719 107.104 124.484 106.353 124.11 105.67C123.736 104.986 123.231 104.383 122.624 103.894C122.017 103.405 121.319 103.039 120.571 102.819C119.822 102.599 119.038 102.529 118.262 102.612C117.487 102.696 116.735 102.931 116.051 103.305C115.366 103.679 114.762 104.184 114.272 104.791C108.737 111.693 101.674 117.215 93.6398 120.92C85.6059 124.625 76.8208 126.413 67.9777 126.143C59.1345 125.873 50.4751 123.552 42.6824 119.362C34.8898 115.173 28.177 109.231 23.0736 102.004L31.4789 93.5985C36.7895 101.86 44.6326 108.18 53.8346 111.613C63.0366 115.045 73.1027 115.406 82.5267 112.641C91.9507 109.875 100.226 104.132 106.114 96.2719C112.002 88.4112 115.187 78.8553 115.191 69.0339C115.199 67.1233 115.078 65.2142 114.828 63.32C113.506 53.0227 108.701 43.4876 101.21 36.2989C100.65 35.7564 99.9879 35.3299 99.2623 35.0437C98.5367 34.7575 97.7618 34.6173 96.9819 34.6312C96.2021 34.6451 95.4326 34.8128 94.7177 35.1246C94.0027 35.4365 93.3564 35.8863 92.8156 36.4485C91.7267 37.5858 91.1341 39.1092 91.1682 40.6834C91.2022 42.2576 91.8601 43.7539 92.9972 44.8431C98.5415 50.1632 102.093 57.2243 103.058 64.8473C103.212 66.0447 103.297 67.25 103.314 68.4572C103.436 76.3056 100.805 83.9487 95.8797 90.0603C90.9542 96.1719 84.0445 100.366 76.3495 101.915C68.6546 103.464 60.6602 102.271 53.7535 98.5411C46.8468 94.8116 41.4638 88.7817 38.5386 81.4978C38.1726 80.5867 37.5865 79.7806 36.8326 79.1516C36.0787 78.5225 35.1806 78.0903 34.2187 77.8934C33.2568 77.6966 32.2611 77.7414 31.3207 78.0237C30.3803 78.306 29.5246 78.8171 28.8302 79.5112L11.2826 97.0482C10.3527 97.9738 9.75686 99.1821 9.58866 100.483C9.42046 101.784 9.68947 103.104 10.3534 104.236C16.4914 114.517 25.1844 123.036 35.5877 128.965Z" fill="url(#paint0_linear_35_2076)"/>
<defs>
<linearGradient id="paint0_linear_35_2076" x1="-0.00684129" y1="-0.0139197" x2="138.2" y2="138.193" gradientUnits="userSpaceOnUse">
<stop stop-color="#00E587"/>
<stop offset="1" stop-color="#00B8AD"/>
</linearGradient>
</defs>
</svg>
