<svg xmlns="http://www.w3.org/2000/svg" xmlns:xlink="http://www.w3.org/1999/xlink" width="1080" zoomAndPan="magnify" viewBox="0 0 810 1012.49997" height="1350" preserveAspectRatio="xMidYMid meet" version="1.0"><path fill="#ffcd00" d="M 514.847656 167.382812 C 515.925781 168.039062 517.003906 168.695312 518.113281 169.371094 C 520.71875 171.019531 523.234375 172.816406 525.726562 174.632812 C 525.726562 175.832031 525.726562 177.027344 525.726562 178.261719 C 527.519531 178.261719 529.316406 178.261719 531.164062 178.261719 C 533.632812 181.238281 536.042969 184.269531 538.417969 187.324219 C 540.34375 188.992188 542.308594 190.617188 544.308594 192.195312 C 545.953125 193.578125 547.601562 194.964844 549.296875 196.386719 C 549.296875 197.585938 549.296875 198.78125 549.296875 200.015625 C 550.492188 200.015625 551.6875 200.015625 552.921875 200.015625 C 555.867188 202.394531 555.867188 202.394531 558.359375 205.453125 C 558.359375 207.246094 558.359375 209.042969 558.359375 210.890625 C 560.15625 211.488281 561.949219 212.085938 563.800781 212.703125 C 566.636719 216.394531 569.148438 219.992188 571.617188 223.921875 C 572.335938 225.050781 573.054688 226.183594 573.792969 227.347656 C 585.769531 246.746094 596.660156 269.386719 596.433594 292.46875 C 597.4375 292.449219 598.441406 292.433594 599.472656 292.417969 C 610.066406 292.257812 620.65625 292.148438 631.246094 292.070312 C 635.183594 292.03125 639.117188 291.984375 643.050781 291.921875 C 674.605469 291.425781 703.050781 292.300781 730.03125 310.707031 C 731.386719 311.628906 732.738281 312.546875 734.132812 313.492188 C 735.359375 314.332031 736.585938 315.167969 737.851562 316.035156 C 739.644531 317.230469 741.441406 318.425781 743.289062 319.660156 C 743.289062 320.855469 743.289062 322.050781 743.289062 323.285156 C 745.683594 324.480469 748.078125 325.679688 750.542969 326.910156 C 750.542969 328.105469 750.542969 329.304688 750.542969 330.535156 C 751.738281 330.535156 752.9375 330.535156 754.167969 330.535156 C 757.011719 334.296875 759.582031 338.007812 762.101562 341.980469 C 762.835938 343.132812 763.570312 344.285156 764.324219 345.472656 C 770.335938 355.179688 774.609375 364.851562 777.738281 375.855469 C 778.34375 377.726562 778.34375 377.726562 778.964844 379.628906 C 787.277344 409.207031 778.988281 442.492188 774.113281 471.933594 C 773.609375 475.019531 773.109375 478.101562 772.609375 481.183594 C 771.539062 487.722656 770.433594 494.257812 769.316406 500.789062 C 768.660156 504.636719 768.019531 508.488281 767.382812 512.339844 C 764.835938 527.777344 762.195312 543.199219 759.496094 558.609375 C 757.277344 571.269531 755.148438 583.925781 753.246094 596.636719 C 751.496094 608.066406 749.542969 619.460938 747.625 630.863281 C 746.476562 637.710938 745.335938 644.554688 744.195312 651.402344 C 743.972656 652.746094 743.75 654.089844 743.515625 655.476562 C 742.378906 662.296875 741.246094 669.117188 740.117188 675.941406 C 738.992188 682.742188 737.855469 689.542969 736.710938 696.339844 C 736.265625 698.996094 735.824219 701.652344 735.386719 704.308594 C 728.296875 747.402344 719.914062 788.207031 683.253906 816.425781 C 647.472656 840.828125 607.339844 838.402344 565.875 838.359375 C 561.992188 838.359375 558.105469 838.363281 554.222656 838.367188 C 543.765625 838.375 533.304688 838.371094 522.847656 838.367188 C 511.847656 838.363281 500.847656 838.367188 489.847656 838.367188 C 471.382812 838.371094 452.917969 838.367188 434.453125 838.359375 C 413.175781 838.347656 391.898438 838.351562 370.617188 838.363281 C 352.273438 838.371094 333.929688 838.371094 315.585938 838.367188 C 304.664062 838.363281 293.742188 838.363281 282.816406 838.371094 C 272.542969 838.375 262.269531 838.371094 251.996094 838.359375 C 248.246094 838.359375 244.5 838.359375 240.753906 838.363281 C 150.539062 838.453125 150.539062 838.453125 117.792969 807.304688 C 117.792969 806.109375 117.792969 804.914062 117.792969 803.679688 C 116 803.082031 114.203125 802.484375 112.355469 801.867188 C 109.457031 798.332031 106.863281 794.875 104.308594 791.101562 C 103.578125 790.027344 102.847656 788.949219 102.097656 787.839844 C 92.847656 773.84375 88.394531 759.367188 84.027344 743.289062 C 83.652344 741.914062 83.277344 740.542969 82.890625 739.125 C 80.300781 729.144531 78.617188 719.160156 77.121094 708.964844 C 75.945312 701.171875 74.625 693.40625 73.28125 685.640625 C 73.027344 684.167969 72.773438 682.695312 72.511719 681.175781 C 71.980469 678.097656 71.445312 675.015625 70.914062 671.933594 C 66.585938 646.878906 62.382812 621.8125 58.53125 596.679688 C 55.777344 578.714844 52.796875 560.820312 49.457031 542.953125 C 47.5 532.433594 45.898438 521.910156 44.472656 511.308594 C 43.175781 502.671875 41.554688 494.113281 39.945312 485.53125 C 22.101562 388.648438 22.101562 388.648438 47.085938 345.039062 C 47.984375 343.355469 48.878906 341.671875 49.804688 339.941406 C 66.429688 315.695312 94.117188 299.554688 122.300781 293.617188 C 139.503906 290.796875 157.3125 291.917969 174.675781 292.128906 C 178.667969 292.15625 182.65625 292.179688 186.644531 292.203125 C 196.332031 292.261719 206.011719 292.351562 215.695312 292.46875 C 215.675781 289.457031 215.675781 289.457031 215.65625 286.382812 C 215.875 252.4375 244.289062 215.804688 266.460938 192.761719 C 267.441406 191.699219 268.421875 190.636719 269.429688 189.539062 C 271.902344 187.324219 271.902344 187.324219 275.527344 187.324219 C 275.527344 186.128906 275.527344 184.929688 275.527344 183.699219 C 277.90625 180.753906 277.90625 180.753906 280.964844 178.261719 C 282.761719 178.261719 284.554688 178.261719 286.40625 178.261719 C 286.40625 177.0625 286.40625 175.867188 286.40625 174.632812 C 293.964844 169.34375 302.03125 164.820312 309.976562 160.132812 C 311.3125 159.277344 312.648438 158.425781 314.027344 157.546875 C 375.320312 119.917969 456.476562 131.582031 514.847656 167.382812 Z M 362.554688 223.582031 C 360.644531 224.402344 358.738281 225.226562 356.773438 226.074219 C 330.363281 241.328125 310 260.566406 297.285156 288.839844 C 297.285156 290.039062 297.285156 291.234375 297.285156 292.46875 C 369.078125 292.46875 440.875 292.46875 514.847656 292.46875 C 500.476562 260.140625 479.816406 234.945312 445.953125 221.769531 C 432.285156 217.175781 419.664062 215.386719 405.273438 215.535156 C 403.453125 215.546875 401.632812 215.554688 399.757812 215.566406 C 386.101562 215.847656 374.976562 217.632812 362.554688 223.582031 Z M 362.554688 223.582031 " fill-opacity="1" fill-rule="nonzero"/><path fill="#fffefd" d="M 505.78125 421.175781 C 525.886719 438.289062 537.402344 459.832031 545.667969 484.625 C 545.742188 488.855469 545.75 493.085938 545.667969 497.316406 C 531.410156 497.683594 517.152344 497.9375 502.890625 498.113281 C 498.035156 498.175781 493.191406 498.28125 488.339844 498.410156 C 481.363281 498.585938 474.390625 498.667969 467.410156 498.730469 C 464.164062 498.84375 464.164062 498.84375 460.851562 498.957031 C 446.042969 498.964844 446.042969 498.964844 440.492188 494.148438 C 437.621094 490.257812 437.621094 490.257812 435.410156 486.378906 C 432.375 481.339844 428.9375 479.011719 423.609375 476.695312 C 416.773438 475.097656 410.125 474.78125 403.121094 474.65625 C 401.796875 474.621094 400.476562 474.585938 399.117188 474.550781 C 389.152344 474.671875 382.507812 477.363281 375.246094 484.625 C 374.414062 491.824219 374.25 495.863281 378.402344 501.933594 C 386.109375 509.078125 397.015625 509.890625 406.972656 511.816406 C 411.410156 512.746094 415.847656 513.675781 420.285156 514.605469 C 424.613281 515.492188 428.9375 516.375 433.261719 517.253906 C 464.382812 523.703125 498.351562 530.917969 522.101562 553.511719 C 523.199219 554.410156 524.296875 555.304688 525.429688 556.230469 C 540.089844 569.035156 549.601562 590.480469 551.109375 609.707031 C 553.214844 641.214844 546.160156 669.09375 525.273438 693.550781 C 499.609375 720.671875 462.535156 733.90625 425.699219 735.464844 C 391.152344 736.105469 355.5625 733.183594 324.480469 716.664062 C 322.863281 715.820312 321.25 714.972656 319.585938 714.101562 C 289.8125 696.859375 269.886719 669.996094 261.023438 636.902344 C 260.960938 633.277344 260.953125 629.648438 261.023438 626.023438 C 275.050781 625.6875 289.074219 625.429688 303.105469 625.273438 C 309.617188 625.195312 316.132812 625.09375 322.644531 624.929688 C 328.933594 624.773438 335.222656 624.6875 341.511719 624.648438 C 345.074219 624.609375 348.632812 624.496094 352.191406 624.382812 C 368.046875 624.375 368.046875 624.375 373.222656 629.230469 C 375.515625 632.914062 377.1875 636.535156 378.871094 640.527344 C 387.4375 648.851562 397.152344 650.25 408.785156 650.609375 C 419.816406 650.234375 429.558594 648.863281 438.699219 642.339844 C 442.253906 637.007812 442.890625 635.667969 443.007812 629.648438 C 443.058594 628.414062 443.109375 627.183594 443.164062 625.910156 C 442.578125 622.210938 442.578125 622.210938 439.707031 619.496094 C 432.890625 615.765625 425.855469 614.328125 418.304688 612.65625 C 416.640625 612.273438 414.976562 611.886719 413.265625 611.492188 C 400.402344 608.566406 387.484375 605.902344 374.5625 603.25 C 367.535156 601.792969 360.511719 600.320312 353.488281 598.832031 C 352.125 598.546875 350.765625 598.257812 349.363281 597.964844 C 322.015625 592.050781 296.082031 580.449219 279.976562 556.613281 C 265.933594 532.582031 262.722656 505.109375 267.703125 477.835938 C 276.914062 445.992188 295.804688 424.054688 324.003906 407.359375 C 378.632812 377.722656 456.835938 382.867188 505.78125 421.175781 Z M 505.78125 421.175781 " fill-opacity="1" fill-rule="nonzero"/></svg>