<?xml version="1.0" encoding="UTF-8"?>
<svg version="1.1" xmlns="http://www.w3.org/2000/svg" width="743" height="777">
<path d="M0 0 C0.59425781 0.36206543 1.18851562 0.72413086 1.80078125 1.09716797 C3.23881909 2.00688687 4.62557597 2.9967553 6 4 C6 4.66 6 5.32 6 6 C6.99 6 7.98 6 9 6 C10.36176922 7.64351457 11.68962066 9.31522656 13 11 C14.06325629 11.91957301 15.14725035 12.8156791 16.25 13.6875 C17.1575 14.450625 18.065 15.21375 19 16 C19 16.66 19 17.32 19 18 C19.66 18 20.32 18 21 18 C22.625 19.3125 22.625 19.3125 24 21 C24 21.99 24 22.98 24 24 C24.99 24.33 25.98 24.66 27 25 C28.56511373 27.03613844 29.95028234 29.02156815 31.3125 31.1875 C31.70840332 31.81172852 32.10430664 32.43595703 32.51220703 33.07910156 C39.11728326 43.77916416 45.12400324 56.26900059 45 69 C45.55328979 68.99111755 46.10657959 68.98223511 46.67663574 68.9730835 C52.5182037 68.88349624 58.35957176 68.82381263 64.20166016 68.78027344 C66.37198839 68.76035333 68.54226436 68.73320717 70.71240234 68.69824219 C88.11610432 68.42517995 103.80506249 68.90711943 118.6875 79.0625 C119.43386719 79.56910156 120.18023438 80.07570313 120.94921875 80.59765625 C121.62597656 81.06042969 122.30273438 81.52320313 123 82 C123.99 82.66 124.98 83.32 126 84 C126 84.66 126 85.32 126 86 C127.32 86.66 128.64 87.32 130 88 C130 88.66 130 89.32 130 90 C130.66 90 131.32 90 132 90 C133.56832562 92.07394411 134.98525735 94.12240566 136.375 96.3125 C136.77984619 96.94824951 137.18469238 97.58399902 137.60180664 98.23901367 C140.91816263 103.59362366 143.27523404 108.92996732 145 115 C145.33451172 116.03060547 145.33451172 116.03060547 145.67578125 117.08203125 C150.26121253 133.39618471 145.6891812 151.75915851 143 168 C142.72371062 169.7004806 142.44764235 171.40099716 142.171875 173.1015625 C141.58137711 176.7093888 140.97167717 180.31364645 140.35449219 183.91699219 C139.99318681 186.04003452 139.63983344 188.16425552 139.2890625 190.2890625 C137.883049 198.80494426 136.42664772 207.31074528 134.9375 215.8125 C133.71558328 222.79504361 132.54107291 229.77809162 131.4921875 236.7890625 C130.52583473 243.09336388 129.44790202 249.37977273 128.39111328 255.66943359 C127.75737924 259.44572892 127.1289661 263.22290822 126.5 267 C126.37633057 267.74137207 126.25266113 268.48274414 126.12524414 269.24658203 C125.49762593 273.00902455 124.87196617 276.77177501 124.25 280.53515625 C123.62949235 284.28730741 123.0020911 288.03825578 122.37060547 291.78857422 C122.12512732 293.25335756 121.88193243 294.71852552 121.64111328 296.18408203 C117.73024727 319.95506596 113.10647142 342.46457849 92.88671875 358.03125 C73.1507379 371.49124236 51.01412445 370.15402743 28.14453125 370.12939453 C26.0021461 370.13075288 23.85976119 370.13253524 21.71737671 370.13470459 C15.94882499 370.13922733 10.18029135 370.13751077 4.41173935 370.1343255 C-1.6554392 370.13177506 -7.72261631 370.13414687 -13.78979492 370.13571167 C-23.97412389 370.13752557 -34.15844558 370.13514755 -44.34277344 370.13037109 C-56.07901308 370.12492999 -67.81523535 370.12669319 -79.55147457 370.1321975 C-89.66919827 370.13675088 -99.78691676 370.13736831 -109.90464115 370.13475883 C-115.92946215 370.13320827 -121.954275 370.13296855 -127.97909546 370.13629532 C-133.64601826 370.13920649 -139.31291889 370.13713931 -144.97983932 370.13140106 C-147.04646137 370.13009075 -149.11308531 370.13043776 -151.17970657 370.13266373 C-200.93896117 370.18127476 -200.93896117 370.18127476 -219 353 C-219 352.34 -219 351.68 -219 351 C-219.99 350.67 -220.98 350.34 -222 350 C-223.59767196 348.04925136 -225.02891842 346.14264184 -226.4375 344.0625 C-226.84000977 343.46840332 -227.24251953 342.87430664 -227.65722656 342.26220703 C-232.75958001 334.5421425 -235.21574275 326.55699351 -237.625 317.6875 C-237.83157227 316.92937012 -238.03814453 316.17124023 -238.25097656 315.39013672 C-239.67878399 309.88437197 -240.60777021 304.37682099 -241.43261719 298.75170898 C-242.0827489 294.45283893 -242.80947162 290.17063541 -243.55078125 285.88671875 C-243.69100204 285.07410583 -243.83122284 284.26149292 -243.97569275 283.42425537 C-244.26915498 281.72449778 -244.56285632 280.02478145 -244.85678101 278.32510376 C-247.24478886 264.50382665 -249.56311344 250.67683902 -251.6875 236.8125 C-253.20635626 226.90174734 -254.85004654 217.03073191 -256.69213867 207.17504883 C-257.77147794 201.37297723 -258.65450444 195.56828559 -259.44140625 189.71875 C-260.15684052 184.95585892 -261.05136396 180.23359406 -261.9375 175.5 C-271.77929424 122.05537809 -271.77929424 122.05537809 -258 98 C-257.505 97.071875 -257.01 96.14375 -256.5 95.1875 C-247.32937557 81.81367271 -232.05852795 72.91025743 -216.51342773 69.63500977 C-207.02602127 68.07858018 -197.20290388 68.69768647 -187.625 68.8125 C-185.42448836 68.82757866 -183.22396668 68.84126142 -181.0234375 68.85351562 C-175.68206944 68.88625813 -170.34108278 68.93620328 -165 69 C-165.01160156 67.33892212 -165.01160156 67.33892212 -165.0234375 65.64428711 C-164.90299971 46.91746563 -149.22915724 26.71156975 -137 14 C-136.45988281 13.41347656 -135.91976562 12.82695312 -135.36328125 12.22265625 C-134 11 -134 11 -132 11 C-132 10.34 -132 9.68 -132 9 C-130.6875 7.375 -130.6875 7.375 -129 6 C-128.01 6 -127.02 6 -126 6 C-126 5.34 -126 4.68 -126 4 C-121.8312913 1.08125959 -117.38139683 -1.41417562 -113 -4 C-112.26265625 -4.47050781 -111.5253125 -4.94101563 -110.765625 -5.42578125 C-76.95874279 -26.18320692 -32.19587522 -19.74929101 0 0 Z M-84 31 C-85.051875 31.45375 -86.10375 31.9075 -87.1875 32.375 C-101.75383619 40.79110536 -112.98561215 51.40330232 -120 67 C-120 67.66 -120 68.32 -120 69 C-80.4 69 -40.8 69 0 69 C-7.92581394 51.16691863 -19.32228753 37.26844943 -38 30 C-45.53881002 27.46730634 -52.50041497 26.48031619 -60.4375 26.5625 C-61.44159912 26.56789795 -62.44569824 26.5732959 -63.48022461 26.57885742 C-71.01125786 26.73329946 -77.14811395 27.71830721 -84 31 Z " fill="#FFCD00" transform="translate(432,154)"/>
<path d="M0 0 C11.0891652 9.44054126 17.4408556 21.32256679 22 35 C22.03954234 37.33299825 22.04401732 39.66708189 22 42 C14.13505199 42.20300798 6.27078021 42.3430087 -1.59619141 42.43945312 C-4.2725693 42.47514898 -6.94552625 42.534203 -9.62158203 42.60351562 C-13.46951578 42.70067845 -17.31512507 42.74595737 -21.1640625 42.78125 C-22.95500839 42.84318542 -22.95500839 42.84318542 -24.78213501 42.90637207 C-32.95110456 42.9107765 -32.95110456 42.9107765 -36.01116943 40.25366211 C-37.59521484 38.10742188 -37.59521484 38.10742188 -38.8152771 35.9666748 C-40.4891173 33.18805092 -42.38431354 31.90371605 -45.32421875 30.625 C-49.0949374 29.7442482 -52.76142336 29.56925007 -56.625 29.5 C-57.35372314 29.48130859 -58.08244629 29.46261719 -58.83325195 29.44335938 C-64.32966976 29.50847242 -67.99377597 30.99377597 -72 35 C-72.45817948 38.97088884 -72.54841645 41.1982791 -70.2578125 44.546875 C-66.00819321 48.48920259 -59.99090922 48.93815058 -54.5 50 C-52.05191152 50.51220033 -49.60399643 51.02523002 -47.15625 51.5390625 C-44.77090603 52.02639765 -42.38549339 52.51339683 -40 53 C-22.83495832 56.55656992 -4.09851948 60.53621054 9 73 C9.60585938 73.495 10.21171875 73.99 10.8359375 74.5 C18.92291259 81.56286034 24.16890387 93.39219127 25 104 C26.16229234 121.37903782 22.27116139 136.75784627 10.75 150.25 C-3.40447774 165.2105954 -23.85440285 172.51033169 -44.171875 173.37109375 C-63.22603839 173.72413542 -82.8556427 172.11205472 -100 163 C-100.89074219 162.53335938 -101.78148437 162.06671875 -102.69921875 161.5859375 C-119.12095725 152.07491634 -130.11162113 137.25571578 -135 119 C-135.03441464 117.00029611 -135.03948898 114.99961012 -135 113 C-127.26370674 112.81442364 -119.52793697 112.6723888 -111.78997517 112.58550262 C-108.19650337 112.54379363 -104.60455673 112.48725755 -101.01196289 112.39648438 C-97.54292594 112.30938432 -94.07535276 112.26169357 -90.60530663 112.24098206 C-88.64118977 112.21906147 -86.67766024 112.15663195 -84.71443176 112.09362793 C-75.97046932 112.08922818 -75.97046932 112.08922818 -73.11578369 114.76831055 C-71.85068257 116.80160507 -70.92823509 118.79881471 -70 121 C-65.27366948 125.59238593 -59.91575759 126.36321294 -53.5 126.5625 C-47.41633671 126.35461603 -42.04334129 125.5989476 -37 122 C-35.03944291 119.05916436 -34.68785455 118.31872048 -34.625 115 C-34.59664063 114.319375 -34.56828125 113.63875 -34.5390625 112.9375 C-34.86083476 110.89663476 -34.86083476 110.89663476 -36.4453125 109.3984375 C-40.20430132 107.34076472 -44.08563827 106.54815516 -48.25 105.625 C-49.1673291 105.41367432 -50.0846582 105.20234863 -51.02978516 104.98461914 C-58.12415457 103.36900462 -65.24804074 101.90104679 -72.375 100.4375 C-76.2518284 99.63350127 -80.12681961 98.82138993 -84 98 C-84.75071777 97.84208984 -85.50143555 97.68417969 -86.27490234 97.52148438 C-101.35788119 94.25835719 -115.66199686 87.85876222 -124.546875 74.7109375 C-132.29078221 61.45519046 -134.06182303 46.29879023 -131.31640625 31.25390625 C-126.23489708 13.69001771 -115.815981 1.58720701 -100.26171875 -7.62109375 C-70.13188729 -23.97029864 -26.99782103 -21.13210739 0 0 Z " fill="#FFFEFD" transform="translate(427,294)"/>
</svg>
