<svg xmlns="http://www.w3.org/2000/svg" xmlns:xlink="http://www.w3.org/1999/xlink" width="1080" zoomAndPan="magnify" viewBox="0 0 810 1012.49997" height="1350" preserveAspectRatio="xMidYMid meet" version="1.0"><path fill="#ffcd00" d="M 482.074219 218.125 C 482.832031 218.585938 483.589844 219.046875 484.371094 219.523438 C 486.203125 220.683594 487.96875 221.945312 489.71875 223.222656 C 489.71875 224.066406 489.71875 224.90625 489.71875 225.773438 C 490.980469 225.773438 492.242188 225.773438 493.542969 225.773438 C 495.277344 227.867188 496.96875 229.996094 498.640625 232.144531 C 499.996094 233.316406 501.375 234.457031 502.78125 235.570312 C 503.9375 236.542969 505.09375 237.515625 506.285156 238.515625 C 506.285156 239.359375 506.285156 240.199219 506.285156 241.066406 C 507.128906 241.066406 507.96875 241.066406 508.835938 241.066406 C 510.90625 242.738281 510.90625 242.738281 512.65625 244.890625 C 512.65625 246.152344 512.65625 247.414062 512.65625 248.710938 C 513.917969 249.132812 515.179688 249.554688 516.480469 249.988281 C 518.472656 252.582031 520.238281 255.113281 521.976562 257.875 C 522.480469 258.667969 522.984375 259.464844 523.503906 260.285156 C 531.921875 273.921875 539.574219 289.839844 539.417969 306.0625 C 540.121094 306.050781 540.828125 306.042969 541.554688 306.03125 C 548.996094 305.914062 556.441406 305.839844 563.886719 305.785156 C 566.652344 305.757812 569.417969 305.722656 572.179688 305.679688 C 594.359375 305.332031 614.351562 305.945312 633.316406 318.886719 C 634.265625 319.535156 635.21875 320.179688 636.195312 320.84375 C 637.058594 321.433594 637.921875 322.023438 638.808594 322.632812 C 640.070312 323.472656 641.332031 324.3125 642.632812 325.179688 C 642.632812 326.023438 642.632812 326.863281 642.632812 327.730469 C 644.316406 328.570312 645.996094 329.410156 647.730469 330.277344 C 647.730469 331.121094 647.730469 331.960938 647.730469 332.828125 C 648.570312 332.828125 649.410156 332.828125 650.277344 332.828125 C 652.277344 335.472656 654.082031 338.082031 655.851562 340.871094 C 656.371094 341.683594 656.886719 342.492188 657.417969 343.328125 C 661.640625 350.152344 664.644531 356.953125 666.84375 364.6875 C 667.269531 366.003906 667.269531 366.003906 667.703125 367.34375 C 673.546875 388.132812 667.722656 411.539062 664.296875 432.234375 C 663.941406 434.402344 663.589844 436.570312 663.238281 438.738281 C 662.488281 443.335938 661.710938 447.929688 660.925781 452.523438 C 660.464844 455.226562 660.011719 457.933594 659.566406 460.644531 C 657.773438 471.496094 655.917969 482.335938 654.023438 493.171875 C 652.464844 502.070312 650.96875 510.96875 649.632812 519.90625 C 648.398438 527.941406 647.027344 535.953125 645.679688 543.96875 C 644.871094 548.78125 644.070312 553.59375 643.269531 558.410156 C 643.113281 559.351562 642.953125 560.296875 642.792969 561.269531 C 641.992188 566.066406 641.195312 570.863281 640.402344 575.660156 C 639.613281 580.441406 638.8125 585.222656 638.007812 590 C 637.695312 591.867188 637.386719 593.734375 637.078125 595.601562 C 632.09375 625.898438 626.203125 654.585938 600.4375 674.425781 C 575.289062 691.578125 547.082031 689.875 517.9375 689.84375 C 515.207031 689.84375 512.480469 689.847656 509.75 689.851562 C 502.398438 689.855469 495.046875 689.855469 487.695312 689.847656 C 479.964844 689.847656 472.234375 689.847656 464.503906 689.851562 C 451.523438 689.855469 438.546875 689.851562 425.570312 689.84375 C 410.613281 689.835938 395.660156 689.839844 380.703125 689.847656 C 367.8125 689.851562 354.917969 689.851562 342.027344 689.851562 C 334.347656 689.847656 326.671875 689.847656 318.996094 689.851562 C 311.773438 689.855469 304.550781 689.851562 297.332031 689.847656 C 294.699219 689.84375 292.066406 689.84375 289.429688 689.847656 C 226.023438 689.910156 226.023438 689.910156 203.011719 668.011719 C 203.011719 667.171875 203.011719 666.332031 203.011719 665.464844 C 201.75 665.042969 200.488281 664.621094 199.1875 664.1875 C 197.152344 661.703125 195.328125 659.273438 193.53125 656.621094 C 193.019531 655.863281 192.507812 655.109375 191.976562 654.328125 C 185.476562 644.488281 182.347656 634.3125 179.277344 623.007812 C 179.011719 622.042969 178.75 621.074219 178.480469 620.078125 C 176.660156 613.0625 175.476562 606.042969 174.425781 598.875 C 173.597656 593.394531 172.671875 587.9375 171.726562 582.480469 C 171.546875 581.441406 171.367188 580.40625 171.183594 579.339844 C 170.808594 577.175781 170.4375 575.007812 170.0625 572.839844 C 167.019531 555.226562 164.0625 537.605469 161.355469 519.933594 C 159.421875 507.304688 157.328125 494.722656 154.980469 482.164062 C 153.605469 474.769531 152.480469 467.371094 151.476562 459.914062 C 150.566406 453.847656 149.425781 447.828125 148.296875 441.792969 C 135.753906 373.679688 135.753906 373.679688 153.3125 343.023438 C 153.945312 341.839844 154.574219 340.65625 155.226562 339.4375 C 166.910156 322.394531 186.371094 311.046875 206.179688 306.875 C 218.269531 304.890625 230.785156 305.679688 242.988281 305.824219 C 245.792969 305.84375 248.597656 305.863281 251.402344 305.878906 C 258.207031 305.917969 265.015625 305.984375 271.820312 306.0625 C 271.804688 303.945312 271.804688 303.945312 271.789062 301.785156 C 271.945312 277.921875 291.917969 252.167969 307.5 235.96875 C 308.1875 235.21875 308.875 234.472656 309.585938 233.703125 C 311.324219 232.144531 311.324219 232.144531 313.871094 232.144531 C 313.871094 231.304688 313.871094 230.460938 313.871094 229.597656 C 315.542969 227.523438 315.542969 227.523438 317.695312 225.773438 C 318.957031 225.773438 320.21875 225.773438 321.515625 225.773438 C 321.515625 224.929688 321.515625 224.089844 321.515625 223.222656 C 326.828125 219.503906 332.5 216.324219 338.082031 213.027344 C 339.023438 212.429688 339.960938 211.828125 340.929688 211.210938 C 384.007812 184.757812 441.046875 192.957031 482.074219 218.125 Z M 375.035156 257.632812 C 373.695312 258.210938 372.355469 258.789062 370.972656 259.386719 C 352.414062 270.113281 338.101562 283.636719 329.164062 303.515625 C 329.164062 304.355469 329.164062 305.195312 329.164062 306.0625 C 379.625 306.0625 430.085938 306.0625 482.074219 306.0625 C 471.976562 283.335938 457.453125 265.621094 433.652344 256.359375 C 424.046875 253.132812 415.175781 251.875 405.0625 251.980469 C 403.78125 251.984375 402.503906 251.992188 401.183594 252 C 391.585938 252.195312 383.765625 253.453125 375.035156 257.632812 Z M 375.035156 257.632812 " fill-opacity="1" fill-rule="nonzero"/><path fill="#fffefd" d="M 475.703125 396.550781 C 489.835938 408.582031 497.929688 423.726562 503.738281 441.15625 C 503.789062 444.128906 503.792969 447.105469 503.738281 450.078125 C 493.714844 450.335938 483.695312 450.515625 473.667969 450.636719 C 470.257812 450.683594 466.851562 450.757812 463.441406 450.847656 C 458.539062 450.972656 453.640625 451.027344 448.734375 451.074219 C 446.453125 451.152344 446.453125 451.152344 444.125 451.234375 C 433.714844 451.238281 433.714844 451.238281 429.816406 447.851562 C 427.796875 445.117188 427.796875 445.117188 426.242188 442.390625 C 424.109375 438.847656 421.695312 437.210938 417.949219 435.582031 C 413.144531 434.460938 408.472656 434.234375 403.546875 434.148438 C 402.621094 434.125 401.691406 434.101562 400.734375 434.074219 C 393.730469 434.160156 389.0625 436.050781 383.957031 441.15625 C 383.371094 446.21875 383.257812 449.058594 386.175781 453.324219 C 391.589844 458.347656 399.257812 458.921875 406.253906 460.273438 C 409.375 460.925781 412.496094 461.582031 415.613281 462.234375 C 418.652344 462.855469 421.691406 463.476562 424.734375 464.097656 C 446.605469 468.628906 470.480469 473.703125 487.171875 489.585938 C 487.945312 490.21875 488.714844 490.847656 489.511719 491.5 C 499.816406 500.5 506.5 515.578125 507.558594 529.09375 C 509.042969 551.246094 504.082031 570.84375 489.402344 588.039062 C 471.363281 607.105469 445.304688 616.410156 419.417969 617.507812 C 395.136719 617.957031 370.121094 615.902344 348.277344 604.289062 C 347.140625 603.695312 346.007812 603.101562 344.835938 602.488281 C 323.910156 590.367188 309.90625 571.480469 303.675781 548.210938 C 303.632812 545.664062 303.625 543.113281 303.675781 540.566406 C 313.535156 540.328125 323.394531 540.148438 333.253906 540.039062 C 337.832031 539.984375 342.410156 539.914062 346.988281 539.796875 C 351.40625 539.6875 355.824219 539.625 360.246094 539.597656 C 362.75 539.570312 365.253906 539.492188 367.753906 539.410156 C 378.898438 539.40625 378.898438 539.40625 382.535156 542.820312 C 384.144531 545.410156 385.320312 547.957031 386.503906 550.761719 C 392.527344 556.613281 399.355469 557.597656 407.53125 557.851562 C 415.28125 557.585938 422.128906 556.621094 428.554688 552.035156 C 431.054688 548.289062 431.5 547.34375 431.582031 543.113281 C 431.617188 542.246094 431.652344 541.378906 431.691406 540.484375 C 431.28125 537.886719 431.28125 537.886719 429.261719 535.976562 C 424.472656 533.351562 419.527344 532.34375 414.21875 531.167969 C 413.050781 530.898438 411.882812 530.628906 410.679688 530.351562 C 401.636719 528.292969 392.558594 526.421875 383.476562 524.554688 C 378.539062 523.53125 373.601562 522.496094 368.664062 521.449219 C 367.707031 521.246094 366.75 521.046875 365.765625 520.839844 C 346.546875 516.679688 328.320312 508.523438 316.996094 491.769531 C 307.128906 474.875 304.871094 455.558594 308.371094 436.382812 C 314.847656 414 328.121094 398.574219 347.941406 386.839844 C 386.335938 366 441.300781 369.617188 475.703125 396.550781 Z M 475.703125 396.550781 " fill-opacity="1" fill-rule="nonzero"/></svg>