<svg xmlns:xlink="http://www.w3.org/1999/xlink"  width="20" height="22" viewBox="0 0 20 22" fill="none" xmlns="http://www.w3.org/2000/svg">
<path d="M0.887939 18.5043L0.0147729 18.4197L0.887939 18.5043ZM19.1121 18.5043L19.9852 18.4197L19.1121 18.5043ZM18.2211 8.99072L17.3478 9.07528L18.2211 8.99072ZM1.77897 8.99072L2.65214 9.07528L1.77897 8.99072ZM4.4449 10.4054C4.4449 10.898 4.83761 11.2973 5.32202 11.2973C5.80645 11.2973 6.19914 10.898 6.19914 10.4054H4.4449ZM13.8008 10.4054C13.8008 10.898 14.1936 11.2973 14.678 11.2973C15.1624 11.2973 15.5551 10.898 15.5551 10.4054H13.8008ZM4.10742 7.72973H15.8926V5.94595H4.10742V7.72973ZM17.3478 9.07528L18.2388 18.5888L19.9852 18.4197L19.0942 8.90617L17.3478 9.07528ZM16.7836 20.2162H3.21639V22H16.7836V20.2162ZM1.76111 18.5888L2.65214 9.07528L0.905809 8.90617L0.0147729 18.4197L1.76111 18.5888ZM3.21639 20.2162C2.35426 20.2162 1.67937 19.4614 1.76111 18.5888L0.0147729 18.4197C-0.165048 20.3397 1.31972 22 3.21639 22V20.2162ZM18.2388 18.5888C18.3206 19.4614 17.6457 20.2162 16.7836 20.2162V22C18.6803 22 20.165 20.3397 19.9852 18.4197L18.2388 18.5888ZM15.8926 7.72973C16.6462 7.72973 17.2763 8.31236 17.3478 9.07528L19.0942 8.90617C18.937 7.22775 17.5506 5.94595 15.8926 5.94595V7.72973ZM4.10742 5.94595C2.44934 5.94595 1.06301 7.22775 0.905809 8.90617L2.65214 9.07528C2.7236 8.31236 3.35375 7.72973 4.10742 7.72973V5.94595ZM6.19914 5.64865C6.19914 3.51414 7.90088 1.78378 10 1.78378V0C6.932 0 4.4449 2.52899 4.4449 5.64865H6.19914ZM10 1.78378C12.0991 1.78378 13.8008 3.51414 13.8008 5.64865H15.5551C15.5551 2.52899 13.0679 0 10 0V1.78378ZM4.4449 5.64865V10.4054H6.19914V5.64865H4.4449ZM13.8008 5.64865V10.4054H15.5551V5.64865H13.8008Z" fill="#43494E"></path>
</svg>